<mxfile host="app.diagrams.net" modified="2021-01-18T03:32:56.652Z" agent="5.0 (Windows NT 10.0; Win64; x64) AppleWebKit/537.36 (KHTML, like Gecko) Chrome/85.0.4183.83 Safari/537.36" etag="v9HaD5C6mrTwi3OzTtTK" version="14.2.4" type="github">
  <diagram id="vLPEAtAq8fVcU0v8RBov" name="第 1 页">
    <mxGraphModel dx="1082" dy="433" grid="1" gridSize="10" guides="1" tooltips="1" connect="1" arrows="1" fold="1" page="1" pageScale="1" pageWidth="827" pageHeight="1169" math="0" shadow="0">
      <root>
        <mxCell id="0" />
        <mxCell id="1" parent="0" />
        <mxCell id="_Tr1XsDcMyPOo6Ubs319-24" value="" style="rounded=0;whiteSpace=wrap;html=1;fillColor=#f5f5f5;fontSize=16;fontColor=#333333;strokeColor=#666666;" parent="1" vertex="1">
          <mxGeometry x="130" y="70" width="570" height="280" as="geometry" />
        </mxCell>
        <mxCell id="_Tr1XsDcMyPOo6Ubs319-12" style="edgeStyle=orthogonalEdgeStyle;rounded=0;orthogonalLoop=1;jettySize=auto;html=1;entryX=0;entryY=0.5;entryDx=0;entryDy=0;" parent="1" source="_Tr1XsDcMyPOo6Ubs319-1" target="_Tr1XsDcMyPOo6Ubs319-2" edge="1">
          <mxGeometry relative="1" as="geometry" />
        </mxCell>
        <mxCell id="_Tr1XsDcMyPOo6Ubs319-1" value="&lt;font style=&quot;font-size: 16px&quot;&gt;Thread.threadLocals&lt;/font&gt;" style="text;html=1;strokeColor=none;fillColor=none;align=center;verticalAlign=middle;whiteSpace=wrap;rounded=0;" parent="1" vertex="1">
          <mxGeometry x="140" y="202.5" width="150" height="30" as="geometry" />
        </mxCell>
        <mxCell id="_Tr1XsDcMyPOo6Ubs319-2" value="" style="rounded=0;whiteSpace=wrap;html=1;" parent="1" vertex="1">
          <mxGeometry x="360" y="175" width="310" height="85" as="geometry" />
        </mxCell>
        <mxCell id="_Tr1XsDcMyPOo6Ubs319-14" style="edgeStyle=orthogonalEdgeStyle;rounded=0;orthogonalLoop=1;jettySize=auto;html=1;fontSize=20;" parent="1" source="_Tr1XsDcMyPOo6Ubs319-13" target="_Tr1XsDcMyPOo6Ubs319-2" edge="1">
          <mxGeometry relative="1" as="geometry" />
        </mxCell>
        <mxCell id="_Tr1XsDcMyPOo6Ubs319-13" value="ThreadLocalMap" style="text;html=1;align=center;verticalAlign=middle;resizable=0;points=[];autosize=1;fontSize=20;" parent="1" vertex="1">
          <mxGeometry x="430" y="100" width="170" height="30" as="geometry" />
        </mxCell>
        <mxCell id="_Tr1XsDcMyPOo6Ubs319-16" style="edgeStyle=orthogonalEdgeStyle;rounded=0;orthogonalLoop=1;jettySize=auto;html=1;entryX=0.5;entryY=1;entryDx=0;entryDy=0;fontSize=16;fontColor=#000000;" parent="1" target="_Tr1XsDcMyPOo6Ubs319-4" edge="1">
          <mxGeometry relative="1" as="geometry">
            <mxPoint x="400" y="280" as="sourcePoint" />
          </mxGeometry>
        </mxCell>
        <mxCell id="_Tr1XsDcMyPOo6Ubs319-23" value="" style="group" parent="1" vertex="1" connectable="0">
          <mxGeometry x="380" y="197.5" width="270" height="40" as="geometry" />
        </mxCell>
        <mxCell id="_Tr1XsDcMyPOo6Ubs319-4" value="Entry" style="rounded=0;whiteSpace=wrap;html=1;fillColor=#f8cecc;strokeColor=#b85450;" parent="_Tr1XsDcMyPOo6Ubs319-23" vertex="1">
          <mxGeometry width="40" height="40" as="geometry" />
        </mxCell>
        <mxCell id="_Tr1XsDcMyPOo6Ubs319-5" value="&lt;span&gt;Entry&lt;/span&gt;" style="rounded=0;whiteSpace=wrap;html=1;fillColor=#d5e8d4;strokeColor=#82b366;" parent="_Tr1XsDcMyPOo6Ubs319-23" vertex="1">
          <mxGeometry x="60" width="40" height="40" as="geometry" />
        </mxCell>
        <mxCell id="_Tr1XsDcMyPOo6Ubs319-7" value="&lt;span&gt;Entry&lt;/span&gt;" style="rounded=0;whiteSpace=wrap;html=1;fillColor=#fff2cc;strokeColor=#d6b656;" parent="_Tr1XsDcMyPOo6Ubs319-23" vertex="1">
          <mxGeometry x="120" width="40" height="40" as="geometry" />
        </mxCell>
        <mxCell id="_Tr1XsDcMyPOo6Ubs319-9" value="&lt;span&gt;Entry&lt;/span&gt;" style="rounded=0;whiteSpace=wrap;html=1;fillColor=#ffe6cc;strokeColor=#d79b00;" parent="_Tr1XsDcMyPOo6Ubs319-23" vertex="1">
          <mxGeometry x="180" width="40" height="40" as="geometry" />
        </mxCell>
        <mxCell id="_Tr1XsDcMyPOo6Ubs319-10" value="&lt;span&gt;Entry&lt;/span&gt;" style="rounded=0;whiteSpace=wrap;html=1;fillColor=#dae8fc;strokeColor=#6c8ebf;" parent="_Tr1XsDcMyPOo6Ubs319-23" vertex="1">
          <mxGeometry x="230" width="40" height="40" as="geometry" />
        </mxCell>
        <mxCell id="1vhtTcmX-5EDQz-RWkb0-1" value="" style="rounded=0;whiteSpace=wrap;html=1;" vertex="1" parent="1">
          <mxGeometry x="360" y="280" width="90" height="40" as="geometry" />
        </mxCell>
        <mxCell id="1vhtTcmX-5EDQz-RWkb0-2" value="&lt;font style=&quot;font-size: 9px;&quot;&gt;key:threadLocal&lt;/font&gt;" style="rounded=0;whiteSpace=wrap;html=1;fontSize=9;" vertex="1" parent="1">
          <mxGeometry x="360" y="280" width="90" height="20" as="geometry" />
        </mxCell>
        <mxCell id="1vhtTcmX-5EDQz-RWkb0-3" value="value:T" style="rounded=0;whiteSpace=wrap;html=1;" vertex="1" parent="1">
          <mxGeometry x="360" y="300" width="90" height="20" as="geometry" />
        </mxCell>
      </root>
    </mxGraphModel>
  </diagram>
</mxfile>
